<?xml version="1.0"?>
<svg width="608" height="608" xmlns="http://www.w3.org/2000/svg" xmlns:svg="http://www.w3.org/2000/svg" enable-background="new 0 0 608 608" version="1.1" xml:space="preserve">
 <g class="layer">
  <title>Layer 1</title>
  <path d="m608,609c-202.26,0 -404.53,0 -607,0c0,-202.03 0,-404.05 0.47,-606.54c202.35,-0.46 404.23,-0.46 606.53,-0.46c0,202.82 0,404.91 0,607" fill="#1E2024" id="svg_1"/>
  <path d="m608.5,609c-0.5,-202.09 -0.5,-404.18 -0.5,-607c-202.3,0 -404.18,0 -606.53,0c-0.3,-0.33 -0.15,-0.94 0.03,-0.96c1.33,-0.08 2.67,-0.04 4,-0.04c201.17,0 402.33,0 603.5,0c0,202.67 0,405.33 -0.5,608z" fill="#878788" id="svg_2"/>
  <text fill="#ffffff" font-family="Helvetica" font-size="24" font-weight="normal" id="svg_6" letter-spacing="-2" stroke-width="0" text-anchor="middle" transform="matrix(13.8769 0 0 13.8769 -2434.78 -4368.34)" word-spacing="0" x="196.76" xml:space="preserve" y="344.54">FB</text>
 </g>
</svg>