<?xml version="1.0" standalone="no"?>
<!DOCTYPE svg PUBLIC "-//W3C//DTD SVG 20010904//EN"
 "http://www.w3.org/TR/2001/REC-SVG-20010904/DTD/svg10.dtd">
<svg version="1.0" xmlns="http://www.w3.org/2000/svg"
 width="316.000000pt" height="83.000000pt" viewBox="0 0 316.000000 83.000000"
 preserveAspectRatio="xMidYMid meet">
<metadata>
Created by potrace 1.12, written by Peter Selinger 2001-2015
</metadata>
<g transform="translate(0.000000,83.000000) scale(0.100000,-0.100000)"
fill="#000000" stroke="none">
<path d="M0 415 l0 -415 1580 0 1580 0 0 415 0 415 -1580 0 -1580 0 0 -415z
m517 196 c21 -10 52 -34 69 -53 60 -66 60 -63 7 -94 -26 -15 -58 -34 -69 -41
-21 -13 -24 -10 -78 103 -31 64 -56 118 -56 119 0 8 95 -17 127 -34z m-185 12
c-6 -10 -23 -47 -40 -83 -17 -36 -60 -125 -95 -198 l-66 -132 -18 48 c-52 135
10 292 139 356 62 31 93 34 80 9z m2008 -213 l0 -210 -30 0 -30 0 0 210 0 210
30 0 30 0 0 -210z m-1590 40 c0 -147 2 -162 20 -180 11 -11 33 -20 50 -20 l30
0 0 85 c0 139 25 165 156 165 131 0 169 -39 162 -166 -3 -65 -7 -77 -31 -101
-25 -26 -35 -28 -130 -33 l-102 -5 -3 -27 c-3 -22 -9 -28 -28 -28 -20 0 -24 5
-24 30 0 28 -3 30 -35 30 -47 0 -88 22 -103 55 -8 17 -12 84 -12 190 l0 165
25 0 25 0 0 -160z m512 108 l3 -53 92 -5 c72 -4 98 -10 120 -26 44 -33 53 -60
53 -171 l0 -103 -27 0 -28 0 0 100 c0 90 -2 102 -23 122 -20 20 -33 23 -105
23 l-82 0 -3 -122 -3 -123 -24 0 -25 0 0 205 0 205 24 0 c23 0 25 -4 28 -52z
m1848 -82 c0 -128 -4 -146 -31 -146 -15 0 -19 7 -19 38 0 22 -3 80 -6 130 l-7
92 32 0 31 0 0 -114z m-2706 -31 c20 -30 36 -58 36 -62 0 -8 -161 -103 -174
-103 -4 0 94 217 100 219 1 1 18 -24 38 -54z m1419 44 c14 -6 30 -22 36 -36
15 -33 14 -226 -1 -241 -8 -8 -51 -12 -128 -12 -103 0 -119 2 -138 20 -17 16
-22 32 -22 69 0 68 12 75 139 81 92 4 106 7 109 23 2 10 -4 27 -14 38 -15 16
-31 19 -121 19 l-103 0 0 25 0 25 110 0 c60 0 120 -5 133 -11z m376 -35 c51
-57 49 -171 -3 -223 -24 -24 -36 -26 -124 -31 l-97 -5 -3 -58 c-3 -53 -5 -57
-27 -57 l-25 0 0 160 c0 175 10 222 52 240 13 5 63 9 111 7 85 -2 90 -3 116
-33z m457 11 c24 -24 25 -29 22 -142 l-3 -118 -118 -3 c-113 -3 -118 -2 -142
22 -31 31 -33 84 -6 117 17 22 28 24 120 27 96 4 101 5 101 26 0 39 -18 46
-122 46 -98 0 -98 0 -98 25 l0 25 110 0 c105 0 112 -1 136 -25z m145 -95 c26
-63 53 -115 60 -115 6 0 35 53 63 118 47 109 52 117 78 117 28 0 28 0 15 -32
-159 -375 -160 -378 -189 -378 l-28 0 21 52 c12 29 23 58 26 64 2 6 -6 14 -20
17 -22 6 -56 79 -123 260 -6 16 -2 18 21 15 26 -3 33 -13 76 -118z m-2136 -8
c0 -57 -6 -89 -22 -124 -12 -27 -26 -48 -30 -48 -7 0 -74 136 -81 165 -4 19
111 106 123 94 6 -6 10 -45 10 -87z m-125 -127 l51 -80 -28 -22 c-41 -34 -127
-63 -182 -63 -53 0 -125 22 -158 48 -22 17 -21 18 115 114 75 53 140 94 143
90 4 -4 30 -43 59 -87z m2570 0 c0 -32 -2 -35 -30 -35 -28 0 -30 3 -30 35 0
32 2 35 30 35 28 0 30 -3 30 -35z"/>
<path d="M926 427 c-23 -23 -26 -34 -26 -102 l0 -75 85 0 c79 0 88 2 112 26
23 23 25 32 21 80 -6 73 -22 87 -102 92 -59 4 -67 2 -90 -21z"/>
<path d="M1633 323 c-17 -6 -16 -48 1 -62 9 -8 45 -11 98 -9 l83 3 3 38 3 37
-88 -1 c-48 0 -94 -3 -100 -6z"/>
<path d="M2004 432 c-23 -15 -34 -53 -34 -116 l0 -66 85 0 c108 0 125 13 125
95 0 77 -20 95 -102 95 -35 0 -68 -4 -74 -8z"/>
<path d="M2452 318 c-7 -7 -12 -19 -12 -28 0 -32 23 -40 107 -40 l83 0 0 40 0
40 -83 0 c-51 0 -88 -5 -95 -12z"/>
</g>
</svg>
