<?xml version="1.0" encoding="UTF-8"?>
<!DOCTYPE svg PUBLIC "-//W3C//DTD SVG 1.1//EN" "http://www.w3.org/Graphics/SVG/1.1/DTD/svg11.dtd">
<!-- Creator: CorelDRAW (Versión de evaluación) -->
<svg xmlns="http://www.w3.org/2000/svg" xml:space="preserve" width="40.126mm" height="7.742mm" version="1.1" style="shape-rendering:geometricPrecision; text-rendering:geometricPrecision; image-rendering:optimizeQuality; fill:#000; clip-rule:evenodd"
viewBox="0 0 4012.6 774.2"
 xmlns:xlink="http://www.w3.org/1999/xlink"
 xmlns:xodm="http://www.corel.com/coreldraw/odm/2003">
 <defs>

 </defs>
 <g id="Capa_x0020_1">
  <metadata id="CorelCorpID_0Corel-Layer"/>
  <g id="_1636546920368">
   <path class="fil0" d="M543.61 326.12l189.16 -110.42c-63.43,-126.06 -193.69,-212.73 -344.33,-213.34l0 0 155.17 323.76z"/>
   <path class="fil0" d="M355.59 215.6c-15.25,31.7 -29.72,61.6 -44.11,91.59l0 0 -99.52 207.22 267.29 -151.73 -111.54 -172.16 -12.12 25.08z"/>
   <path class="fil0" d="M569.33 379.82l120.2 250.83c52.82,-66.17 84.43,-149.94 84.43,-241.22 0,-50.87 -9.92,-99.42 -27.78,-143.96l0 0 -176.85 134.35z"/>
   <path class="fil0" d="M138.5 686.41c67.22,56.28 153.79,90.17 248.34,90.17l0 0c111.02,0 211.06,-46.81 281.68,-121.68l-153.22 -236.58 -376.8 268.09z"/>
   <path class="fil0" d="M-0.31 389.43c0,75.11 21.45,145.14 58.44,204.52l0 0 285.59 -589.19c-193.5,21.45 -344.03,185.44 -344.03,384.67z"/>
   <path class="fil0" d="M1561.31 53.65l0 141.75 144.87 -0.01c69.65,0 121.56,15.83 155.81,47.52 34.28,31.68 51.42,75.82 51.42,132.47l0.02 231.34 -83.34 0 0 -231.34c0,-31.68 -9.89,-56.38 -29.62,-74 -19.73,-17.67 -51.17,-26.51 -94.29,-26.51l-144.87 0 0.03 331.87 -82.61 -0.01 0 -553.08 82.58 0z"/>
   <path class="fil0" d="M2261.81 526.49c15.06,0 22.63,-7.02 22.63,-21.04l0 -77.13 -194.02 -0.01c-21.84,0 -37.14,4.29 -45.98,12.87 -8.86,8.55 -13.22,20.36 -13.22,35.44 0,15.05 4.35,27.11 13.22,36.21 8.85,9.08 23.66,13.64 44.42,13.64l172.95 0 0 0.02zm-39.75 -331.12c25.48,0 47.28,3.41 65.48,10.14 18.15,6.75 33.09,16.24 44.78,28.44 11.66,12.22 20.1,26.63 25.31,43.24 5.17,16.63 7.8,34.53 7.8,53.75l0 193.26c0,15.02 -1.2,27.77 -3.54,38.15 -2.3,10.39 -6.59,18.83 -12.82,25.31 -6.24,6.5 -14.92,11.27 -26.09,14.44 -11.19,3.1 -25.35,4.64 -42.45,4.64l-192.43 -0.01c-48.88,0 -84.03,-11.15 -105.59,-33.5 -21.55,-22.35 -32.31,-52.95 -32.31,-91.92 0,-18.69 2.47,-35.34 7.4,-49.88 4.92,-14.5 12.84,-26.87 23.78,-36.99 10.9,-10.1 25.15,-17.92 42.81,-23.39 17.65,-5.41 39.22,-8.19 64.66,-8.19l195.57 0 0 -31.14c0,-16.09 -4.81,-29.62 -14.45,-40.5 -9.6,-10.92 -25.81,-16.36 -48.68,-16.36l-246.15 0 0 -79.49 246.92 0z"/>
   <path class="fil0" d="M1335.56 497.28c-16.36,19.48 -42.44,29.21 -78.3,29.21l-101.3 0 0 -0.25 -59.95 0 0 -0.11 -12.5 0 0 -150.78c0,-35.85 7.05,-61.55 21.07,-77.16 14.03,-15.56 37.91,-23.35 71.62,-23.35l81.06 0c35.85,0 61.94,9.85 78.3,29.59 16.37,19.74 24.53,51.95 24.53,96.62 0,44.67 -8.16,76.73 -24.53,96.23zm59.99 -250.85c-31.95,-34.03 -75.19,-51.05 -129.71,-51.05l-113.71 0c-49.92,0 -87.53,14.4 -112.97,43.24 -25.45,28.84 -38.22,73.1 -38.22,132.84l0 154.69 0 0.1 -23.65 0c-18.18,0 -33.3,-2.03 -45.35,-6.12 -12.08,-4.12 -21.74,-9.68 -28.98,-16.74 -7.3,-7 -12.41,-15.43 -15.37,-25.2 -3,-9.79 -4.45,-20.13 -4.45,-31.04l0 -392.65 -80.5 0 0 393.31c0,23.19 3.12,44.43 9.26,63.77 6.13,19.33 16,36.01 29.65,50.11 13.66,14.07 31.25,25.14 52.87,33.07 21.6,7.98 47.63,11.95 78.12,11.95l28.41 0 0 71.1 82.58 0 0 -71.1 12.49 0 59.96 0 109.89 0c54.5,0 97.74,-16.86 129.7,-50.65 31.91,-33.75 47.9,-85.41 47.9,-155 -0.01,-69.08 -16,-120.61 -47.92,-154.63z"/>
   <path class="fil0" d="M2567.34 207.58c-95.72,0 -146.14,55.76 -146.14,170.49l0 387.36 79.9 0 0 -159.81 176.48 0c105.34,0 171.78,-64.74 171.78,-198.92 0,-134.17 -66.44,-199.12 -171.78,-199.12l-110.24 0zm-66.24 174.13c0,-68.59 24.79,-97.22 89.74,-97.22l78.41 0c69.23,0 99.35,36.11 99.35,122.21 0,85.89 -30.12,121.36 -99.35,121.36l-168.15 0 0 -146.35zm399.51 -346.76l0 570.67 79.91 0 0 -570.67 -79.91 0zm165.76 172.63l0 76.91 238.23 0c43.8,0 61.1,24.15 61.1,55.13l0 30.12 -189.3 0c-97.85,0 -134.17,42.09 -134.17,114.52 0,75.42 39.31,121.36 133.54,121.36l186.09 0c67.09,0 82.25,-22.65 82.25,-79.91l0 -186.95c0,-75.42 -39.31,-131.18 -138.66,-131.18l-239.08 0zm277.33 320.48l-167.3 0c-39.95,0 -55.76,-19.02 -55.76,-48.29 0,-29.48 15.17,-46.78 57.26,-46.78l187.8 0 0 74.56c0,14.32 -5.98,20.51 -22,20.51zm478.06 -320.48l-135.03 312.79 -10.47 0c-15.17,0 -18.8,-2.14 -24.14,-16.45l-119.86 -296.34 -84.4 0 133.33 334.79c13.67,34.62 29.48,48.93 74.78,48.93l-74.78 174.13 86.1 0 239.51 -557.85 -85.04 0zm97.18 -124.99l12.82 343.56 68.58 0 11.97 -343.56 -93.37 0zm3.64 420.47l0 102.56 85.89 0 0 -102.56 -85.89 0z"/>
  </g>
 </g>
</svg>
