<?xml version="1.0" encoding="UTF-8"?>
<!DOCTYPE svg PUBLIC "-//W3C//DTD SVG 1.1//EN" "http://www.w3.org/Graphics/SVG/1.1/DTD/svg11.dtd">
<!-- Creator: CorelDRAW (Versión de evaluación) -->
<svg xmlns="http://www.w3.org/2000/svg" xml:space="preserve" width="35.839mm" height="7.803mm" version="1.1" style="shape-rendering:geometricPrecision; text-rendering:geometricPrecision; image-rendering:optimizeQuality; fill:#000; clip-rule:evenodd"
viewBox="0 0 3583.9 780.3"
 xmlns:xlink="http://www.w3.org/1999/xlink"
 xmlns:xodm="http://www.corel.com/coreldraw/odm/2003">
 <defs>

 </defs>
 <g id="Capa_x0020_1">
  <metadata id="CorelCorpID_0Corel-Layer"/>
  <g id="_1600191682064">
   <path class="fil0" d="M1572.41 154.82l0 142.85 146.01 0c70.19,0 122.52,15.96 157.05,47.9 34.54,31.93 51.82,76.41 51.82,133.5l0.02 233.17 -84.01 0 0 -233.17c0,-31.92 -9.96,-56.81 -29.85,-74.57 -19.89,-17.81 -51.56,-26.71 -95.03,-26.71l-146.01 0 0.03 334.47 -83.27 -0.01 0 -557.43 83.24 0z"/>
   <path class="fil0" d="M2238.38 297.66c25.67,0 47.64,3.43 65.99,10.22 18.29,6.79 33.35,16.36 45.14,28.66 11.76,12.32 20.25,26.84 25.5,43.58 5.22,16.76 7.86,34.8 7.86,54.17l0 194.77c0,15.14 -1.2,28 -3.56,38.46 -2.32,10.47 -6.65,18.97 -12.93,25.5 -6.28,6.56 -15.03,11.37 -26.29,14.56 -11.28,3.13 -25.56,4.68 -42.78,4.68l-193.96 -0.01c-49.26,0 -84.69,-11.24 -106.42,-33.77 -21.71,-22.52 -32.57,-53.36 -32.57,-92.65 0,-18.84 2.49,-35.61 7.46,-50.26 4.97,-14.62 12.94,-27.08 23.96,-37.29 11,-10.17 25.36,-18.06 43.16,-23.56 17.78,-5.46 39.53,-8.25 65.17,-8.25l197.12 -0.01 0 -31.39c0,-16.21 -4.86,-29.85 -14.56,-40.81 -9.69,-11.01 -26.02,-16.49 -49.08,-16.49l-248.1 0 0 -80.11 248.89 0zm40.05 333.71c15.19,0 22.81,-7.07 22.81,-21.21l0 -77.73 -195.55 -0.01c-22,0 -37.43,4.33 -46.34,12.97 -8.93,8.62 -13.32,20.52 -13.32,35.72 0,15.17 4.38,27.32 13.32,36.5 8.92,9.14 23.85,13.74 44.77,13.74l174.31 0 0 0.02z"/>
   <path class="fil0" d="M1405.34 349.11c-32.21,-34.29 -75.79,-51.45 -130.74,-51.45l-114.62 0c-50.3,0 -88.21,14.52 -113.86,43.59 -25.64,29.06 -38.51,73.66 -38.51,133.88l0 155.9 0 0.11 -23.85 0c-18.32,0 -33.56,-2.06 -45.7,-6.18 -12.17,-4.15 -21.91,-9.76 -29.21,-16.87 -7.35,-7.06 -12.51,-15.55 -15.48,-25.39 -3.03,-9.88 -4.49,-20.29 -4.49,-31.29l0 -395.73 -81.14 0 0 396.4c0,23.37 3.14,44.78 9.34,64.28 6.17,19.46 16.13,36.29 29.87,50.5 13.78,14.17 31.51,25.33 53.3,33.32 21.77,8.04 48,12.04 78.73,12.04l28.64 0 0 71.66 83.22 0 0 -71.66 12.6 0 60.43 0 110.76 0c54.93,0 98.51,-17 130.72,-51.05 32.17,-34 48.29,-86.07 48.29,-156.21 -0.02,-69.62 -16.13,-121.56 -48.3,-155.85zm-60.47 252.82c-16.49,19.63 -42.78,29.44 -78.92,29.44l-102.09 0 0 -0.25 -60.44 0 0 -0.11 -12.59 0 0 -151.97c0,-36.13 7.12,-62.03 21.23,-77.76 14.15,-15.67 38.22,-23.53 72.2,-23.53l81.69 0c36.13,0 62.42,9.92 78.92,29.82 16.51,19.89 24.72,52.35 24.72,97.38 0,45.03 -8.22,77.32 -24.72,96.98z"/>
   <path class="fil0" d="M545.22 334.08l190.66 -111.28c-63.93,-127.05 -195.22,-214.4 -347.05,-215.02l156.39 326.3z"/>
   <path class="fil0" d="M355.73 222.7c-15.38,31.94 -29.96,62.08 -44.47,92.31l0 0 -100.3 208.83 269.4 -152.91 -112.42 -173.51 -12.21 25.28z"/>
   <path class="fil0" d="M571.16 388.2l121.14 252.81c53.24,-66.68 85.09,-151.12 85.09,-243.11l0 0c0,-51.28 -10,-100.23 -28,-145.1l-178.23 135.4z"/>
   <path class="fil0" d="M136.91 697.19c67.75,56.73 155.01,90.89 250.3,90.89l0 0c111.91,0 212.73,-47.18 283.91,-122.63l0 0 -154.42 -238.43 -379.79 270.17z"/>
   <path class="fil0" d="M-2.98 397.9c0,75.69 21.61,146.28 58.9,206.13l287.84 -593.82c-195.03,21.62 -346.74,186.89 -346.74,387.69z"/>
   <path class="fil0" d="M2405.41 708.61l337.3 0c24.47,0 45.69,-3.22 63.14,-9.5l0 0c17.26,-6.32 31.57,-15.05 42.49,-25.96l0 0c10.86,-10.86 18.87,-24.13 23.84,-39.45l0 0c4.99,-15.58 7.52,-32.88 7.52,-51.43l0 0c0,-16.38 -2.13,-31.94 -6.33,-46.2l0 0c-4.13,-13.84 -11.55,-26.11 -22.1,-36.41l0 0c-10.64,-10.35 -25.46,-18.81 -44.1,-25.09l0 0c-18.81,-6.36 -43.28,-9.59 -72.68,-9.59l0 0 -101.83 0c-25.67,0 -42.78,-4.36 -52.32,-13.28l0 0c-9.49,-8.87 -14.34,-21.87 -14.34,-38.57l0 0c0,-17.83 4.96,-31.48 14.75,-40.65l0 0c9.67,-9.08 25.46,-13.69 46.95,-13.69l0 0 568.32 0c25.47,0 44.01,6.4 55.09,18.97l0 0c10.93,12.4 16.46,27.89 16.46,46.04l0 0 0 37.89 -211.17 0c-26.19,0 -48.61,2.84 -66.66,8.39l0 0c-17.78,5.5 -32.32,13.41 -43.21,23.52l0 0c-10.82,10.05 -18.81,22.48 -23.71,36.93l0 0c-4.99,14.71 -7.54,31.84 -7.54,50.94l0 0c0,39.52 10.99,70.92 32.69,93.41l0 0c21.59,22.37 57.83,33.73 107.61,33.73l202.86 0c17.51,0 32.12,-1.59 43.4,-4.72l0 0c10.84,-3.05 19.33,-7.69 25.21,-13.83l0 0c5.89,-6.16 10.04,-14.3 12.27,-24.32l0 0c2.38,-10.5 3.58,-23.69 3.58,-39.12l0 0 0 -107.96 40.37 0 0 45.55c0,27.91 2.42,51.52 7.23,70.19l0 0c4.68,18.28 12.04,33.03 21.83,43.87l0 0c9.73,10.73 22.37,18.55 37.56,23.17l0 0c15.59,4.77 34.58,7.17 56.42,7.17l72.97 0 0 -69.54 -54.9 0c-22.13,0 -38.41,-5.23 -48.37,-15.51l0 0c-10.1,-10.35 -14.99,-28.15 -14.99,-54.42l0 0 0 -210.35 119.9 0 0 -73.63 -119.9 0 0 -102.68 -77.75 0 0 279.21 -40.37 0 0 -38.72c0,-19.6 -2.7,-38.15 -8.01,-55.15l0 0c-5.19,-16.69 -13.8,-31.36 -25.5,-43.59l0 0c-11.72,-12.22 -26.97,-21.91 -45.32,-28.74l0 0c-18.55,-6.87 -41.17,-10.33 -67.23,-10.33l0 0 -569.95 0c-48.69,0 -83.95,10.91 -104.76,32.53l0 0c-20.85,21.6 -31.43,51.53 -31.43,88.86l0 0c0,15.9 2.14,31.47 6.39,46.24l0 0c4.12,14.46 11.6,27.43 22.18,38.55l0 0c10.63,11.13 25.32,20.13 43.64,26.66l0 0c18.5,6.62 42.78,9.96 72.19,9.96l0 0 102.67 0c23.23,0 39.71,3.96 50.28,12.15l0 0c10.86,8.38 16.34,22.26 16.34,41.36l0 0c0,18.41 -5,32.01 -14.92,40.39l0 0c-9.8,8.26 -25.09,12.28 -46.76,12.28l0 0 -337.3 0 0 74.47zm600.56 -90.37c-10.19,-10.49 -15.36,-24.52 -15.36,-41.71l0 0c0,-17.23 5.19,-31.03 15.49,-40.99l0 0c10.35,-10.07 27.35,-14.96 51.96,-14.96l0 0 209.52 0 0 86.33c0,17.56 -10.25,27.23 -28.85,27.23l0 0 -182.33 0c-23.22,0 -40.18,-5.34 -50.43,-15.9l0 0z"/>
  </g>
 </g>
</svg>
