
<svg xmlns="http://www.w3.org/2000/svg" width="184.559" height="55" viewBox="0 0 184.559 55"><g transform="translate(-100.161 169.123)"><path d="M127.016-162.838h0a15.226,15.226,0,0,0-7.941,2.173v.008a16.162,16.162,0,0,0-3.3,2.568,16.493,16.493,0,0,0-2.542,3.362h0a16,16,0,0,0-1.618,3.911,16.484,16.484,0,0,0-.531,4.238,16.449,16.449,0,0,0,.531,4.229,15.947,15.947,0,0,0,1.61,3.9,16.619,16.619,0,0,0,2.542,3.358,16.516,16.516,0,0,0,3.3,2.59,15.22,15.22,0,0,0,7.942,2.172,15.794,15.794,0,0,0,4.173-.539,15.388,15.388,0,0,0,3.846-1.65,16.424,16.424,0,0,0,3.323-2.584,16.539,16.539,0,0,0,2.55-3.358v0a15.953,15.953,0,0,0,1.61-3.883,16.477,16.477,0,0,0,.535-4.226,16.555,16.555,0,0,0-.535-4.238,16.254,16.254,0,0,0-1.618-3.911h0a16.061,16.061,0,0,0-2.55-3.362,16.151,16.151,0,0,0-3.312-2.568,15.65,15.65,0,0,0-3.861-1.644,15.857,15.857,0,0,0-4.165-.538m73.712,22.3h-8.934a5.718,5.718,0,0,0-1.4.167,5.96,5.96,0,0,0-1.346.541h-.008a5.767,5.767,0,0,0-1.174.824,5.419,5.419,0,0,0-.9,1.071,4.391,4.391,0,0,0-.547,1.174,4.363,4.363,0,0,0-.175,1.265,4.72,4.72,0,0,0,1.349,3.6,4.293,4.293,0,0,0,1.7.948,9.539,9.539,0,0,0,2.856.375h8.586Zm-22.522-15.229h17.947a13.355,13.355,0,0,1,2.819.295,12.176,12.176,0,0,1,2.636.9,10.506,10.506,0,0,1,2.346,1.517l.008.008a9.871,9.871,0,0,1,1.824,2.083l0,0a9.247,9.247,0,0,1,1.2,2.619,10.719,10.719,0,0,1,.393,2.922v21.275H190.509a9.977,9.977,0,0,1-2.921-.431,9.9,9.9,0,0,1-2.669-1.273,10.973,10.973,0,0,1-2.2-1.943v0a12.035,12.035,0,0,1-1.649-2.479l-.006-.01a12.62,12.62,0,0,1-1.016-2.842,13.405,13.405,0,0,1-.345-3.045l.01-.072a10.966,10.966,0,0,1,.541-3.035l-.008,0a10.4,10.4,0,0,1,1.386-2.735,11.442,11.442,0,0,1,2.069-2.24,12.625,12.625,0,0,1,2.631-1.666h.01a13.89,13.89,0,0,1,3.016-1.029,15.268,15.268,0,0,1,3.234-.341h7.648a3.476,3.476,0,0,0-1.273-1.335,3.01,3.01,0,0,0-.82-.362,3.66,3.66,0,0,0-.95-.116H178.206V-137.2a12.091,12.091,0,0,1-.491,3.436,12.464,12.464,0,0,1-1.441,3.177,14.256,14.256,0,0,1-2.18,2.66,14.242,14.242,0,0,1-2.731,2.038h-.008a13.838,13.838,0,0,1-3.08,1.294,12.217,12.217,0,0,1-3.228.443l-.039-.006a16.274,16.274,0,0,1-3.457-.433,15.894,15.894,0,0,1-3.259-1.164,12.912,12.912,0,0,1-2.974-1.964,13.358,13.358,0,0,1-2.325-2.708l0,0a12.083,12.083,0,0,1-1.541-3.471,15.085,15.085,0,0,1-.5-3.956v-17.916H157.4v17.787a7.6,7.6,0,0,0,1,3.822,7.912,7.912,0,0,0,1.2,1.6l0,0a7.731,7.731,0,0,0,1.558,1.211h.006a7.307,7.307,0,0,0,1.8.774l0-.01a7.516,7.516,0,0,0,1.967.258v.008a6.362,6.362,0,0,0,1.7-.274,7.059,7.059,0,0,0,1.647-.762l.008-.008a7.679,7.679,0,0,0,1.476-1.154,7.592,7.592,0,0,0,1.124-1.434v-.008a6.773,6.773,0,0,0,.7-1.549,5.514,5.514,0,0,0,.216-1.526v-18.728h6.392Zm58.813,12.811h0v18.8h-6.558V-142.4a6.207,6.207,0,0,0-.927-3.321,7.487,7.487,0,0,0-1.117-1.41,7.681,7.681,0,0,0-1.46-1.1l.006,0a7.539,7.539,0,0,0-1.678-.715v0a7.111,7.111,0,0,0-1.744-.267v.008a7.849,7.849,0,0,0-2.059.256v.006a7.25,7.25,0,0,0-1.835.782v0a7.917,7.917,0,0,0-1.578,1.256,7.829,7.829,0,0,0-1.2,1.623,7.9,7.9,0,0,0-.762,1.863,8,8,0,0,0-.245,2.019v17.137h-6.556v-18.035a12.742,12.742,0,0,1,.518-3.629,12.493,12.493,0,0,1,1.554-3.309v-.008a13.826,13.826,0,0,1,2.352-2.723,14.488,14.488,0,0,1,3.014-2.069v0a15.3,15.3,0,0,1,3.408-1.3h.006a15.154,15.154,0,0,1,3.624-.438l.031.006a13.9,13.9,0,0,1,3.59.517,12.577,12.577,0,0,1,3.259,1.46,14.255,14.255,0,0,1,2.663,2.141,12.87,12.87,0,0,1,2.008,2.671l0,0a12.882,12.882,0,0,1,1.259,2.937,11.448,11.448,0,0,1,.43,3.075m41.045,2.418h-8.939a5.672,5.672,0,0,0-1.4.167,6.013,6.013,0,0,0-1.349.541h-.008a5.836,5.836,0,0,0-1.177.824,5.446,5.446,0,0,0-.9,1.071v.006a4.473,4.473,0,0,0-.551,1.167h0a4.554,4.554,0,0,0-.172,1.265,4.733,4.733,0,0,0,1.351,3.6,4.259,4.259,0,0,0,1.7.948,9.532,9.532,0,0,0,2.856.375h8.589Zm-39.205-15.229h1.494V-168.9h6.624v13.134h26.509a13.413,13.413,0,0,1,2.824.295,12.124,12.124,0,0,1,2.629.9,10.622,10.622,0,0,1,2.352,1.517l0,.008a10.01,10.01,0,0,1,1.824,2.083l0,0a9.243,9.243,0,0,1,1.2,2.619,10.718,10.718,0,0,1,.394,2.922v21.275H267.841a9.959,9.959,0,0,1-2.919-.431,9.982,9.982,0,0,1-2.671-1.273,11.161,11.161,0,0,1-2.2-1.943v0a12.094,12.094,0,0,1-1.647-2.479l-.006-.01a12.943,12.943,0,0,1-1.016-2.842,13.683,13.683,0,0,1-.343-3.045l.008-.072a10.906,10.906,0,0,1,.541-3.035l-.006,0a10.547,10.547,0,0,1,1.385-2.735,11.45,11.45,0,0,1,2.07-2.24,12.583,12.583,0,0,1,2.631-1.666h.006a13.963,13.963,0,0,1,3.017-1.029,15.253,15.253,0,0,1,3.233-.341h7.649a3.452,3.452,0,0,0-1.274-1.335,3.044,3.044,0,0,0-.818-.362,3.673,3.673,0,0,0-.951-.116H246.977v13.947a11.269,11.269,0,0,0,.224,2.363,5.559,5.559,0,0,0,.588,1.6v.008a1.43,1.43,0,0,0,.655.594,3.976,3.976,0,0,0,1.613.269h6.094v6.181h-6.6a9.726,9.726,0,0,1-3.336-.576,9.313,9.313,0,0,1-2.882-1.7h0a7.623,7.623,0,0,1-2.322-3.78,18.633,18.633,0,0,1-.65-5.276v-13.625h-3.5v-6.651ZM133.28-125.033c.46.118.935.243,1.425.372,3.669,1.027,6.437,1.777,8.28,2.254,6.474,1.744,11.412,2.951,14.767,3.623a45.927,45.927,0,0,0,7.121.94,10.778,10.778,0,0,0,4.181-.9c1.605-.7,3.194-1.409,4.78-2.1.552.014.839.182.842.475a.573.573,0,0,1-.322.523,5.222,5.222,0,0,0-.444.283A56.987,56.987,0,0,1,163.9-115.22a21.392,21.392,0,0,1-6.71,1.092q-4.9-.135-14.453-2.724-9.53-2.594-18.605-5.092-10.665-2.77-15.949-2.927a25.927,25.927,0,0,0-3.653.179c-.716.071-1.8.211-3.226.456-.589.108-.96-.063-1.087-.485-.124-.193-.024-.39.261-.617a2.264,2.264,0,0,1,.81-.415,57.869,57.869,0,0,1,6.871-1.681,34.948,34.948,0,0,1,6.451-.364l.293.01a22.371,22.371,0,0,1-3.663-2.979,23.009,23.009,0,0,1-3.537-4.614v-.008a22.2,22.2,0,0,1-2.254-5.381,22.36,22.36,0,0,1-.755-5.8,22.648,22.648,0,0,1,.753-5.849,22.279,22.279,0,0,1,2.256-5.429,23,23,0,0,1,3.537-4.65,22.718,22.718,0,0,1,4.6-3.569,21.95,21.95,0,0,1,5.376-2.281,21.947,21.947,0,0,1,5.79-.773,22.514,22.514,0,0,1,4.455.446,21.985,21.985,0,0,1,4.241,1.317l0,0a22.683,22.683,0,0,1,3.833,2.075,22.148,22.148,0,0,1,3.354,2.777,22.561,22.561,0,0,1,2.747,3.363,22.524,22.524,0,0,1,2.07,3.851,21.785,21.785,0,0,1,1.311,4.244,23.041,23.041,0,0,1,.433,4.476,22.131,22.131,0,0,1-.755,5.791,22.232,22.232,0,0,1-2.26,5.39,22.543,22.543,0,0,1-3.548,4.632,22.892,22.892,0,0,1-4.635,3.569,22.1,22.1,0,0,1-4.965,2.156" transform="translate(0 0)" fill="#000"/></g></svg>