<?xml version="1.0" standalone="no"?>
<!DOCTYPE svg PUBLIC "-//W3C//DTD SVG 20010904//EN"
 "http://www.w3.org/TR/2001/REC-SVG-20010904/DTD/svg10.dtd">
<svg version="1.0" xmlns="http://www.w3.org/2000/svg"
 width="758.000000pt" height="329.000000pt" viewBox="0 0 758.000000 329.000000"
 preserveAspectRatio="xMidYMid meet">

<g transform="translate(0.000000,329.000000) scale(0.100000,-0.100000)"
fill="#000000" stroke="none">
<path d="M3638 2339 l-3 -723 -42 65 c-45 68 -161 189 -228 237 -177 125 -400
185 -605 162 -370 -42 -674 -305 -786 -679 l-28 -91 -233 0 c-128 0 -233 2
-233 5 0 3 103 178 229 388 497 830 591 989 591 993 0 2 -452 4 -1005 4 -553
0 -1005 -3 -1005 -7 0 -5 48 -98 106 -208 58 -110 126 -239 151 -287 l45 -88
285 0 c251 0 284 -2 279 -15 -3 -9 -135 -232 -294 -498 -445 -743 -532 -888
-532 -893 0 -2 377 -4 838 -4 l839 0 24 -52 c58 -125 159 -254 263 -338 550
-437 1323 -118 1461 604 10 52 15 125 14 204 l-2 123 124 125 c68 68 127 123
131 122 4 -2 154 -174 333 -383 180 -209 332 -386 339 -393 11 -11 70 58 326
380 173 216 315 395 317 398 2 2 71 -63 153 -145 l150 -150 0 -80 c1 -505 332
-920 792 -995 369 -60 762 151 940 505 40 79 85 213 97 292 16 102 14 287 -5
383 -72 384 -365 693 -729 768 -205 43 -431 4 -619 -106 -94 -55 -243 -196
-302 -286 l-39 -59 -5 720 -5 721 -520 -445 c-286 -245 -525 -447 -532 -450
-7 -3 -135 100 -285 228 -255 218 -731 624 -770 657 -17 14 -18 -22 -20 -709z
m-670 -953 c53 -28 112 -86 140 -140 23 -45 27 -63 27 -146 0 -81 -4 -102 -25
-145 -54 -109 -144 -167 -260 -167 -83 0 -142 24 -197 79 -61 61 -87 124 -91
220 -4 72 -1 89 23 140 38 83 97 141 174 170 47 18 166 12 209 -11z m3719 -4
c56 -29 108 -84 139 -149 22 -44 27 -68 27 -132 1 -70 -3 -87 -32 -145 -53
-109 -144 -168 -257 -168 -112 -1 -218 70 -266 176 -18 40 -23 69 -23 136 0
75 4 92 30 144 33 66 101 130 162 152 54 20 167 13 220 -14z"/>
</g>
</svg>
